<mxfile host="Electron" agent="Mozilla/5.0 (X11; Linux x86_64) AppleWebKit/537.36 (KHTML, like Gecko) draw.io/27.0.9 Chrome/134.0.6998.205 Electron/35.4.0 Safari/537.36" version="27.0.9">
  <diagram name="PÃ¡gina-1" id="DYp1RgFoiBS7GOiD2hXf">
    <mxGraphModel dx="1239" dy="840" grid="1" gridSize="10" guides="1" tooltips="1" connect="1" arrows="1" fold="1" page="1" pageScale="1" pageWidth="827" pageHeight="1169" math="0" shadow="0">
      <root>
        <mxCell id="0" />
        <mxCell id="1" parent="0" />
        <mxCell id="eAeqYizaYduoWVms4-7M-11" value="" style="html=1;shadow=0;dashed=0;align=center;verticalAlign=middle;shape=mxgraph.arrows2.arrow;dy=0.6;dx=40;direction=east;notch=0;fillColor=#dae8fc;strokeColor=#6c8ebf;" parent="1" vertex="1">
          <mxGeometry x="1380" y="569" width="100" height="70" as="geometry" />
        </mxCell>
        <mxCell id="xaIpyLeh70rR3IpqYqhR-24" value="&lt;font style=&quot;font-size: 16px;&quot;&gt;API Ingestion&lt;/font&gt;" style="swimlane;whiteSpace=wrap;html=1;fillColor=#fff2cc;strokeColor=#d6b656;" parent="1" vertex="1">
          <mxGeometry x="840" y="434" width="530" height="316" as="geometry" />
        </mxCell>
        <mxCell id="xaIpyLeh70rR3IpqYqhR-17" value="" style="shape=image;verticalLabelPosition=bottom;labelBackgroundColor=default;verticalAlign=top;aspect=fixed;imageAspect=0;image=https://miro.medium.com/v2/resize:fit:512/1*UaUZmFbQmQ4ZstvGQ-JFeA.png;" parent="xaIpyLeh70rR3IpqYqhR-24" vertex="1">
          <mxGeometry x="20" y="40" width="260" height="260" as="geometry" />
        </mxCell>
        <mxCell id="xaIpyLeh70rR3IpqYqhR-18" value="" style="shape=image;verticalLabelPosition=bottom;labelBackgroundColor=default;verticalAlign=top;aspect=fixed;imageAspect=0;image=https://miro.medium.com/v2/resize:fit:802/1*ThIofZs6uOtgMsiMP2rWGg.png;clipPath=inset(7.29% 33.33% 10.42% 32%);" parent="xaIpyLeh70rR3IpqYqhR-24" vertex="1">
          <mxGeometry x="350" y="41.5" width="169.1645569620253" height="257" as="geometry" />
        </mxCell>
        <mxCell id="xaIpyLeh70rR3IpqYqhR-41" value="" style="html=1;shadow=0;dashed=0;align=center;verticalAlign=middle;shape=mxgraph.arrows2.arrow;dy=1;dx=35.04;direction=north;notch=0;fillColor=#dae8fc;strokeColor=#6c8ebf;rotation=90;" parent="xaIpyLeh70rR3IpqYqhR-24" vertex="1">
          <mxGeometry x="310" y="121.30999999999995" width="33.47" height="73.37" as="geometry" />
        </mxCell>
        <mxCell id="xaIpyLeh70rR3IpqYqhR-25" value="&lt;font style=&quot;font-size: 16px;&quot;&gt;IaC (Infrastructure as Code)&lt;/font&gt;" style="swimlane;whiteSpace=wrap;html=1;fillColor=#fff2cc;strokeColor=#d6b656;" parent="1" vertex="1">
          <mxGeometry x="1590" y="969" width="486" height="200" as="geometry" />
        </mxCell>
        <UserObject label="" id="xaIpyLeh70rR3IpqYqhR-1">
          <mxCell style="shape=image;verticalLabelPosition=bottom;labelBackgroundColor=default;verticalAlign=top;aspect=fixed;imageAspect=0;image=https://upload.wikimedia.org/wikipedia/commons/thumb/0/04/Terraform_Logo.svg/2560px-Terraform_Logo.svg.png;" parent="xaIpyLeh70rR3IpqYqhR-25" vertex="1">
            <mxGeometry x="20" y="63.75" width="446" height="107.41" as="geometry" />
          </mxCell>
        </UserObject>
        <mxCell id="xaIpyLeh70rR3IpqYqhR-26" value="&lt;font style=&quot;font-size: 16px;&quot;&gt;Transformation and Warehousing&lt;/font&gt;" style="swimlane;whiteSpace=wrap;html=1;fillColor=#fff2cc;strokeColor=#d6b656;" parent="1" vertex="1">
          <mxGeometry x="1486.53" y="439" width="799.47" height="413.27" as="geometry" />
        </mxCell>
        <mxCell id="xaIpyLeh70rR3IpqYqhR-8" value="" style="shape=image;verticalLabelPosition=bottom;labelBackgroundColor=default;verticalAlign=top;aspect=fixed;imageAspect=0;image=https://upload.wikimedia.org/wikipedia/commons/thumb/f/ff/Snowflake_Logo.svg/1200px-Snowflake_Logo.svg.png;" parent="xaIpyLeh70rR3IpqYqhR-26" vertex="1">
          <mxGeometry x="60" y="46.13999999999998" width="560" height="133.94" as="geometry" />
        </mxCell>
        <mxCell id="xaIpyLeh70rR3IpqYqhR-10" value="" style="shape=image;verticalLabelPosition=bottom;labelBackgroundColor=default;verticalAlign=top;aspect=fixed;imageAspect=0;image=https://miro.medium.com/v2/resize:fit:1200/0*HfhEwlaisB71Ft1h.png;" parent="xaIpyLeh70rR3IpqYqhR-26" vertex="1">
          <mxGeometry x="160" y="249.40999999999997" width="360" height="120" as="geometry" />
        </mxCell>
        <mxCell id="xaIpyLeh70rR3IpqYqhR-33" value="" style="html=1;shadow=0;dashed=0;align=center;verticalAlign=middle;shape=mxgraph.arrows2.arrow;dy=1;dx=35.04;direction=north;notch=0;fillColor=#dae8fc;strokeColor=#6c8ebf;" parent="xaIpyLeh70rR3IpqYqhR-26" vertex="1">
          <mxGeometry x="333.47" y="160" width="33.47" height="73.37" as="geometry" />
        </mxCell>
        <mxCell id="xaIpyLeh70rR3IpqYqhR-29" value="&lt;font style=&quot;font-size: 16px;&quot;&gt;Airflow with Astro CLI and Docker&lt;/font&gt;" style="swimlane;whiteSpace=wrap;html=1;fillColor=#fff2cc;strokeColor=#d6b656;" parent="1" vertex="1">
          <mxGeometry x="850" width="1950" height="278.3" as="geometry" />
        </mxCell>
        <mxCell id="xaIpyLeh70rR3IpqYqhR-28" value="" style="shape=image;verticalLabelPosition=bottom;labelBackgroundColor=default;verticalAlign=top;aspect=fixed;imageAspect=0;image=https://miro.medium.com/v2/resize:fit:1100/1*nIQK3xUORo5AE1_raCmoVw.png;clipPath=inset(0.38% 52.33% 1.13% 1%);" parent="xaIpyLeh70rR3IpqYqhR-29" vertex="1">
          <mxGeometry x="20" y="30.00000000000003" width="220" height="205.86" as="geometry" />
        </mxCell>
        <mxCell id="xaIpyLeh70rR3IpqYqhR-27" value="" style="shape=image;verticalLabelPosition=bottom;labelBackgroundColor=default;verticalAlign=top;aspect=fixed;imageAspect=0;image=https://upload.wikimedia.org/wikipedia/commons/thumb/d/de/AirflowLogo.png/1200px-AirflowLogo.png;clipPath=inset(6.9% 0% 6.9% 39.67%);" parent="xaIpyLeh70rR3IpqYqhR-29" vertex="1">
          <mxGeometry x="229.5" y="35.03" width="371" height="204.97237569060772" as="geometry" />
        </mxCell>
        <mxCell id="xaIpyLeh70rR3IpqYqhR-7" value="" style="shape=image;verticalLabelPosition=bottom;labelBackgroundColor=default;verticalAlign=top;aspect=fixed;imageAspect=0;image=https://miro.medium.com/v2/resize:fit:1100/1*nIQK3xUORo5AE1_raCmoVw.png;clipPath=inset(0.38% 7% 3.38% 54%);" parent="xaIpyLeh70rR3IpqYqhR-29" vertex="1">
          <mxGeometry x="830" y="48.99000000000003" width="153.46195312499998" height="167.89" as="geometry" />
        </mxCell>
        <mxCell id="eAeqYizaYduoWVms4-7M-3" value="" style="shape=image;verticalLabelPosition=bottom;labelBackgroundColor=default;verticalAlign=top;aspect=fixed;imageAspect=0;image=https://logos-world.net/wp-content/uploads/2021/02/Docker-Logo.png;" parent="xaIpyLeh70rR3IpqYqhR-29" vertex="1">
          <mxGeometry x="1510" y="36.06000000000001" width="366.53" height="206.18" as="geometry" />
        </mxCell>
        <mxCell id="7flkndeFbwJESd_ZyVEQ-1" value="" style="shape=image;verticalLabelPosition=bottom;labelBackgroundColor=default;verticalAlign=top;aspect=fixed;imageAspect=0;image=https://raw.githubusercontent.com/astronomer/astronomer-cosmos/main/docs/_static/cosmos-logo.svg;" vertex="1" parent="xaIpyLeh70rR3IpqYqhR-29">
          <mxGeometry x="1000" y="110" width="276" height="64.23" as="geometry" />
        </mxCell>
        <mxCell id="xaIpyLeh70rR3IpqYqhR-30" value="&lt;font style=&quot;font-size: 16px;&quot;&gt;Visualization&lt;/font&gt;" style="swimlane;whiteSpace=wrap;html=1;fillColor=#fff2cc;strokeColor=#d6b656;" parent="1" vertex="1">
          <mxGeometry x="2290" y="439" width="502" height="260" as="geometry" />
        </mxCell>
        <mxCell id="xaIpyLeh70rR3IpqYqhR-11" value="" style="shape=image;verticalLabelPosition=bottom;labelBackgroundColor=default;verticalAlign=top;aspect=fixed;imageAspect=0;image=https://images.icon-icons.com/2699/PNG/512/metabase_logo_icon_168103.png;" parent="xaIpyLeh70rR3IpqYqhR-30" vertex="1">
          <mxGeometry x="35" y="32.58" width="432" height="216" as="geometry" />
        </mxCell>
        <mxCell id="xaIpyLeh70rR3IpqYqhR-31" value="&lt;font style=&quot;font-size: 16px;&quot;&gt;CI/CD&lt;/font&gt;" style="swimlane;whiteSpace=wrap;html=1;fillColor=#fff2cc;strokeColor=#d6b656;" parent="1" vertex="1">
          <mxGeometry x="2280" y="959" width="250.58" height="208.9942105263158" as="geometry" />
        </mxCell>
        <mxCell id="xaIpyLeh70rR3IpqYqhR-14" value="" style="shape=image;verticalLabelPosition=bottom;labelBackgroundColor=default;verticalAlign=top;aspect=fixed;imageAspect=0;image=https://miro.medium.com/v2/resize:fit:1074/1*mQt3PGU5U-coo528wdr9rw.png;clipPath=inset(14.57% 17% 6.57% 19.67%);" parent="xaIpyLeh70rR3IpqYqhR-31" vertex="1">
          <mxGeometry x="40" y="50" width="180.58" height="131.16" as="geometry" />
        </mxCell>
        <mxCell id="xaIpyLeh70rR3IpqYqhR-32" value="" style="html=1;shadow=0;dashed=0;align=center;verticalAlign=middle;shape=mxgraph.arrows2.arrow;dy=0.6;dx=40;direction=north;notch=0;fillColor=#dae8fc;strokeColor=#6c8ebf;" parent="1" vertex="1">
          <mxGeometry x="1790" y="859" width="70" height="100" as="geometry" />
        </mxCell>
        <mxCell id="xaIpyLeh70rR3IpqYqhR-34" value="" style="html=1;shadow=0;dashed=0;align=center;verticalAlign=middle;shape=mxgraph.arrows2.arrow;dy=0.6;dx=40;direction=east;notch=0;fillColor=#dae8fc;strokeColor=#6c8ebf;" parent="1" vertex="1">
          <mxGeometry x="2170" y="569" width="100" height="70" as="geometry" />
        </mxCell>
        <mxCell id="xaIpyLeh70rR3IpqYqhR-36" value="" style="html=1;shadow=0;dashed=0;align=center;verticalAlign=middle;shape=mxgraph.arrows2.arrow;dy=0.6;dx=40;direction=east;notch=0;fillColor=#dae8fc;strokeColor=#6c8ebf;rotation=30;" parent="1" vertex="1">
          <mxGeometry x="2177.25" y="860.94" width="100" height="41" as="geometry" />
        </mxCell>
        <mxCell id="xaIpyLeh70rR3IpqYqhR-37" value="" style="html=1;shadow=0;dashed=0;align=center;verticalAlign=middle;shape=mxgraph.arrows2.arrow;dy=0.6;dx=40;direction=east;notch=0;fillColor=#dae8fc;strokeColor=#6c8ebf;rotation=90;" parent="1" vertex="1">
          <mxGeometry x="1070.0012701892222" y="320.00088913245537" width="100" height="70" as="geometry" />
        </mxCell>
        <mxCell id="xaIpyLeh70rR3IpqYqhR-38" value="" style="html=1;shadow=0;dashed=0;align=center;verticalAlign=middle;shape=mxgraph.arrows2.arrow;dy=0.6;dx=40;direction=east;notch=0;fillColor=#dae8fc;strokeColor=#6c8ebf;rotation=90;" parent="1" vertex="1">
          <mxGeometry x="1780.0012701892222" y="320.00088913245537" width="100" height="70" as="geometry" />
        </mxCell>
        <mxCell id="xaIpyLeh70rR3IpqYqhR-40" value="" style="html=1;shadow=0;dashed=0;align=center;verticalAlign=middle;shape=mxgraph.arrows2.arrow;dy=0.6;dx=40;direction=east;notch=0;fillColor=#dae8fc;strokeColor=#6c8ebf;rotation=90;" parent="1" vertex="1">
          <mxGeometry x="2500.001270189222" y="320.00088913245537" width="100" height="70" as="geometry" />
        </mxCell>
        <mxCell id="BE2C-JOAX6qsEgy62Ffl-1" value="" style="html=1;shadow=0;dashed=0;align=center;verticalAlign=middle;shape=mxgraph.arrows2.arrow;dy=0.6;dx=40;direction=east;notch=0;fillColor=#dae8fc;strokeColor=#6c8ebf;rotation=-144;" parent="1" vertex="1">
          <mxGeometry x="2146.531270189222" y="910.003520777581" width="100" height="41" as="geometry" />
        </mxCell>
        <mxCell id="BE2C-JOAX6qsEgy62Ffl-3" value="" style="html=1;shadow=0;dashed=0;align=center;verticalAlign=middle;shape=mxgraph.arrows2.arrow;dy=0.6;dx=40;direction=east;notch=0;fillColor=#dae8fc;strokeColor=#6c8ebf;rotation=0;" parent="1" vertex="1">
          <mxGeometry x="2134.1891772015206" y="1023.9635207775809" width="100" height="41" as="geometry" />
        </mxCell>
        <mxCell id="BE2C-JOAX6qsEgy62Ffl-4" value="" style="html=1;shadow=0;dashed=0;align=center;verticalAlign=middle;shape=mxgraph.arrows2.arrow;dy=0.6;dx=40;direction=east;notch=0;fillColor=#dae8fc;strokeColor=#6c8ebf;rotation=-180;" parent="1" vertex="1">
          <mxGeometry x="2130.000447390743" y="1073.027041555162" width="100" height="41" as="geometry" />
        </mxCell>
      </root>
    </mxGraphModel>
  </diagram>
</mxfile>
